<?xml version="1.0" encoding="UTF-8" standalone="no"?>
<!DOCTYPE svg PUBLIC "-//W3C//DTD SVG 1.1//EN" "http://www.w3.org/Graphics/SVG/1.1/DTD/svg11.dtd">
<svg width="100%" height="100%" viewBox="0 0 138 88" version="1.1" xmlns="http://www.w3.org/2000/svg" xmlns:xlink="http://www.w3.org/1999/xlink" xml:space="preserve" xmlns:serif="http://www.serif.com/" style="fill-rule:evenodd;clip-rule:evenodd;stroke-linejoin:round;stroke-miterlimit:2;">
    <g transform="matrix(0.601134,0,0,0.601134,-37.4245,-505.597)">
        <g>
            <g transform="matrix(1,0,0,1,267.37,899.849)">
                <path d="M0,85.084L-13.799,-0.41C-13.992,-1.608 -15.823,-2.528 -18.016,-2.528L-162.646,-2.528C-164.839,-2.528 -166.669,-1.608 -166.863,-0.41L-180.661,85.084C-180.881,86.443 -178.93,87.612 -176.444,87.612L-4.217,87.612C-1.732,87.612 0.219,86.443 0,85.084" style="fill:rgb(192,0,0);fill-rule:nonzero;"/>
            </g>
            <g transform="matrix(1,0,0,1,160.015,875.578)">
                <path d="M0,-14.823C0.378,-17.408 3.135,-18.838 5.462,-17.655C6.871,-16.939 7.689,-15.358 7.46,-13.792C7.083,-11.207 4.325,-9.777 1.998,-10.96C0.589,-11.677 -0.229,-13.257 0,-14.823M10.355,-8.196C11.764,-7.479 12.582,-5.898 12.354,-4.333C11.976,-1.747 9.218,-0.318 6.891,-1.5C5.482,-2.217 4.664,-3.798 4.893,-5.363C5.271,-7.948 8.028,-9.378 10.355,-8.196M9.455,-19.725C9.833,-22.311 12.59,-23.74 14.917,-22.557C16.326,-21.842 17.144,-20.26 16.915,-18.695C16.537,-16.11 13.779,-14.679 11.453,-15.863C10.043,-16.579 9.226,-18.16 9.455,-19.725M19.81,-13.098C21.219,-12.382 22.037,-10.801 21.808,-9.235C21.43,-6.65 18.673,-5.22 16.346,-6.403C14.937,-7.119 14.119,-8.7 14.348,-10.266C14.726,-12.851 17.483,-14.281 19.81,-13.098M-11.876,-3.015L-19.74,21.743L34.241,21.743L36.747,13.853C36.879,13.438 37.242,13.14 37.673,13.087C56.817,10.714 71.982,3.229 74.898,-4.851C75.019,-5.172 75.121,-5.5 75.199,-5.836C75.248,-6.05 75.285,-6.265 75.315,-6.482C75.327,-6.558 75.337,-6.635 75.347,-6.711C75.348,-6.723 75.349,-6.735 75.351,-6.747C75.416,-7.302 75.424,-7.857 75.367,-8.411C75.32,-8.867 75.232,-9.315 75.104,-9.754C72.898,-18.331 58.173,-27.756 38.982,-32.169C19.865,-36.566 2.559,-34.555 -3.243,-27.867C-3.431,-27.65 -3.687,-27.51 -3.971,-27.474C-9.149,-26.813 -13.728,-23.242 -15.41,-17.948C-17.006,-12.921 -15.573,-7.656 -12.131,-4.118C-11.848,-3.827 -11.754,-3.402 -11.876,-3.015" style="fill:white;fill-rule:nonzero;"/>
            </g>
            <g transform="matrix(1,0,0,1,32.6726,5.5)">
                <text x="88.577px" y="929.231px" style="font-family:'Brother-1816-Black', 'Brother 1816';font-weight:900;font-size:19.873px;fill:white;">B<tspan x="102.707px 117.095px 129.814px 145.275px 160.736px 173.455px 188.041px " y="929.231px 929.231px 929.231px 929.231px 929.231px 929.231px 929.231px ">REAKERS</tspan></text>
                <text x="88.606px" y="959.041px" style="font-family:'Brother-1816-Black', 'Brother 1816';font-weight:900;font-size:32.732px;fill:white;">S<tspan x="108.245px 128.768px 156.852px 179.993px " y="959.041px 959.041px 959.041px 959.041px ">TORE</tspan></text>
            </g>
        </g>
    </g>
</svg>
